<svg width="260" height="80" viewBox="0 0 260 80" fill="none" xmlns="http://www.w3.org/2000/svg">
  <!-- Hexagonal network -->
  <path d="M40 8L62 20V44L40 56L18 44V20L40 8Z" fill="rgba(16,185,129,0.04)" stroke="#10B981" stroke-width="1.5" opacity="0.4"/>
  <path d="M40 16L54 24V40L40 48L26 40V24L40 16Z" fill="none" stroke="#3B82F6" stroke-width="0.5" opacity="0.2"/>
  
  <!-- Central scout figure -->
  <g transform="translate(28, 12)">
    <circle cx="12" cy="8" r="7" fill="#1E3A5F"/>
    <line x1="12" y1="1" x2="12" y2="15" stroke="#10B981" stroke-width="0.3" opacity="0.5"/>
    <circle cx="9" cy="7.5" r="1.2" fill="#60A5FA"/>
    <rect x="13.5" y="6" width="3" height="3" rx="0.5" fill="none" stroke="#10B981" stroke-width="0.6"/>
    <circle cx="15" cy="7.5" r="0.5" fill="#10B981"/>
    <path d="M6 2L8 4L12 1L16 4L18 2" stroke="#10B981" stroke-width="0.8" stroke-linecap="round" opacity="0.6"/>
    <path d="M6 15V24L12 28L18 24V15" fill="rgba(30,58,95,0.3)" stroke="#1E3A5F" stroke-width="1"/>
    <path d="M10 18L12 16L14 18L12 20Z" fill="#10B981" opacity="0.4" stroke="#10B981" stroke-width="0.4"/>
  </g>
  
  <!-- Truck nodes -->
  <g transform="translate(54, 10)">
    <rect width="8" height="4" rx="1" fill="none" stroke="#3B82F6" stroke-width="0.6"/>
    <circle cx="2" cy="5.5" r="1" fill="none" stroke="#3B82F6" stroke-width="0.4"/>
    <circle cx="6" cy="5.5" r="1" fill="none" stroke="#3B82F6" stroke-width="0.4"/>
  </g>
  <line x1="47" y1="20" x2="54" y2="14" stroke="#3B82F6" stroke-width="0.5" opacity="0.3" stroke-dasharray="2 2"/>
  
  <g transform="translate(56, 46)">
    <rect width="8" height="4" rx="1" fill="none" stroke="#10B981" stroke-width="0.6"/>
    <circle cx="2" cy="5.5" r="1" fill="none" stroke="#10B981" stroke-width="0.4"/>
    <circle cx="6" cy="5.5" r="1" fill="none" stroke="#10B981" stroke-width="0.4"/>
  </g>
  <line x1="47" y1="40" x2="56" y2="48" stroke="#10B981" stroke-width="0.5" opacity="0.3" stroke-dasharray="2 2"/>
  
  <g transform="translate(8, 34)">
    <rect width="8" height="4" rx="1" fill="none" stroke="#10B981" stroke-width="0.6"/>
    <circle cx="2" cy="5.5" r="1" fill="none" stroke="#10B981" stroke-width="0.4"/>
    <circle cx="6" cy="5.5" r="1" fill="none" stroke="#10B981" stroke-width="0.4"/>
  </g>
  <line x1="33" y1="32" x2="16" y2="36" stroke="#10B981" stroke-width="0.5" opacity="0.3" stroke-dasharray="2 2"/>
  
  <g transform="translate(30, 58)">
    <rect width="8" height="4" rx="1" fill="none" stroke="#3B82F6" stroke-width="0.5" opacity="0.6"/>
    <circle cx="2" cy="5.5" r="0.8" fill="none" stroke="#3B82F6" stroke-width="0.3" opacity="0.5"/>
    <circle cx="6" cy="5.5" r="0.8" fill="none" stroke="#3B82F6" stroke-width="0.3" opacity="0.5"/>
  </g>
  <line x1="40" y1="48" x2="36" y2="58" stroke="#3B82F6" stroke-width="0.4" opacity="0.2" stroke-dasharray="2 2"/>
  
  <!-- Pings -->
  <circle cx="58" cy="12" r="4" fill="none" stroke="#3B82F6" stroke-width="0.3" opacity="0.2"/>
  <circle cx="60" cy="48" r="4" fill="none" stroke="#10B981" stroke-width="0.3" opacity="0.2"/>
  
  <!-- Text -->
  <text x="82" y="26" font-family="Oxanium, sans-serif" font-weight="800" font-size="13" fill="#64748B" letter-spacing="4">CARRIER</text>
  <text x="82" y="52" font-family="Oxanium, sans-serif" font-weight="800" font-size="24" letter-spacing="2">
    <tspan fill="#10B981">SC</tspan><tspan fill="#E2E8F0">O</tspan><tspan fill="#3B82F6">UT</tspan>
  </text>
  <line x1="82" y1="58" x2="220" y2="58" stroke="url(#csAccent3)" stroke-width="2"/>
  <text x="82" y="72" font-family="sans-serif" font-size="6.5" fill="#475569" letter-spacing="4">YOUR FREIGHT NETWORK COMMANDER</text>
  
  <defs>
    <linearGradient id="csAccent3" x1="82" y1="0" x2="220" y2="0">
      <stop stop-color="#10B981"/>
      <stop offset="0.4" stop-color="#3B82F6"/>
      <stop offset="1" stop-color="transparent"/>
    </linearGradient>
  </defs>
</svg>
