<svg width="240" height="80" viewBox="0 0 240 80" fill="none" xmlns="http://www.w3.org/2000/svg">
  <!-- Shield shape -->
  <path d="M40 4L68 14V38C68 54 40 72 40 72C40 72 12 54 12 38V14L40 4Z" fill="rgba(30,58,95,0.3)" stroke="url(#shieldGrad)" stroke-width="2"/>
  
  <!-- Dispatcher figure inside shield -->
  <circle cx="40" cy="20" r="8" fill="#1E3A5F"/>
  <line x1="40" y1="12" x2="40" y2="28" stroke="#3B82F6" stroke-width="0.5" opacity="0.6"/>
  <circle cx="36" cy="19" r="1.5" fill="#60A5FA"/>
  <circle cx="44" cy="19" r="1.5" fill="none" stroke="#10B981" stroke-width="0.8"/>
  <circle cx="44" cy="19" r="0.6" fill="#10B981"/>
  <path d="M31 20C31 20 29 18 29 22C29 24 31 24 31 24" stroke="#3B82F6" stroke-width="1.2" stroke-linecap="round"/>
  <path d="M42 14H46" stroke="#3B82F6" stroke-width="0.4" opacity="0.5"/>
  <path d="M44 16V22" stroke="#10B981" stroke-width="0.4" opacity="0.4"/>
  <path d="M34 28V38H46V28" fill="none" stroke="#1E3A5F" stroke-width="1.2"/>
  <rect x="36" y="30" width="8" height="6" rx="1" fill="rgba(59,130,246,0.1)" stroke="#3B82F6" stroke-width="0.5"/>
  <path d="M37.5 32H42.5M37.5 34H41" stroke="#10B981" stroke-width="0.4" opacity="0.6"/>
  <path d="M34 32L24 38" stroke="#1E3A5F" stroke-width="1" stroke-linecap="round"/>
  <path d="M46 32L56 38" stroke="#3B82F6" stroke-width="0.8" stroke-linecap="round" stroke-dasharray="2 1.5"/>
  
  <!-- Left truck -->
  <g transform="translate(16, 38)">
    <path d="M0 6L1 2H8L10 4H12V6H0Z" fill="rgba(16,185,129,0.1)" stroke="#10B981" stroke-width="0.6"/>
    <circle cx="3" cy="7" r="1.5" fill="none" stroke="#10B981" stroke-width="0.5"/>
    <circle cx="9" cy="7" r="1.5" fill="none" stroke="#10B981" stroke-width="0.5"/>
  </g>
  
  <!-- Right truck -->
  <g transform="translate(50, 38)">
    <path d="M0 6L1 2H8L10 4H12V6H0Z" fill="rgba(59,130,246,0.1)" stroke="#3B82F6" stroke-width="0.6"/>
    <circle cx="3" cy="7" r="1.5" fill="none" stroke="#3B82F6" stroke-width="0.5"/>
    <circle cx="9" cy="7" r="1.5" fill="none" stroke="#3B82F6" stroke-width="0.5"/>
  </g>
  
  <path d="M24 38L20 42" stroke="#10B981" stroke-width="0.5" opacity="0.5"/>
  <path d="M56 38L58 42" stroke="#3B82F6" stroke-width="0.5" opacity="0.5"/>
  <path d="M22 52L30 48L40 54L50 48L58 52" stroke="#10B981" stroke-width="0.8" opacity="0.4" stroke-linecap="round"/>
  <circle cx="22" cy="52" r="1.5" fill="#10B981" opacity="0.5"/>
  <circle cx="58" cy="52" r="1.5" fill="#3B82F6" opacity="0.5"/>
  
  <!-- Text -->
  <text x="82" y="30" font-family="Michroma, sans-serif" font-size="14" fill="#E2E8F0" letter-spacing="3">DISPATCH</text>
  <text x="82" y="52" font-family="Michroma, sans-serif" font-size="18" letter-spacing="4">
    <tspan fill="#3B82F6">LI</tspan><tspan fill="#10B981">NK</tspan>
  </text>
  <line x1="82" y1="57" x2="200" y2="57" stroke="url(#shieldAccent)" stroke-width="1.5"/>
  <text x="82" y="68" font-family="sans-serif" font-size="6.5" fill="#475569" letter-spacing="4">FREIGHT · CONNECTED · INTELLIGENT</text>
  
  <defs>
    <linearGradient id="shieldGrad" x1="12" y1="4" x2="68" y2="72">
      <stop stop-color="#3B82F6"/>
      <stop offset="1" stop-color="#10B981"/>
    </linearGradient>
    <linearGradient id="shieldAccent" x1="82" y1="0" x2="200" y2="0">
      <stop stop-color="#3B82F6"/>
      <stop offset="0.5" stop-color="#10B981"/>
      <stop offset="1" stop-color="transparent"/>
    </linearGradient>
  </defs>
</svg>
